<svg xmlns="http://www.w3.org/2000/svg" width="24" height="24" viewBox="0 0 24 24" fill="black">
  <path d="M24 4.557a9.828 9.828 0 0 1-2.828.775 4.932 4.932 0 0 0 2.165-2.724 9.864 9.864 0 0 1-3.127 1.195A4.916 4.916 0 0 0 16.616 3c-2.717 0-4.924 2.206-4.924 4.924 0 .386.043.762.127 1.124C7.691 8.856 4.066 6.884 1.64 3.894a4.91 4.91 0 0 0-.666 2.475c0 1.708.869 3.216 2.188 4.099A4.904 4.904 0 0 1 .964 9.1v.062c0 2.385 1.693 4.374 3.946 4.827a4.935 4.935 0 0 1-2.212.084 4.928 4.928 0 0 0 4.6 3.417A9.867 9.867 0 0 1 0 19.54a13.951 13.951 0 0 0 7.548 2.212c9.057 0 14.01-7.514 14.01-14.01 0-.213-.005-.425-.014-.636A10.01 10.01 0 0 0 24 4.557z"/>
</svg>
