<?xml version="1.0" standalone="no"?>
<!DOCTYPE svg PUBLIC "-//W3C//DTD SVG 20010904//EN"
 "http://www.w3.org/TR/2001/REC-SVG-20010904/DTD/svg10.dtd">
<svg version="1.0" xmlns="http://www.w3.org/2000/svg"
 width="1242.000000pt" height="522.000000pt" viewBox="0 0 1242.000000 522.000000"
 preserveAspectRatio="xMidYMid meet">

<g transform="translate(0.000000,522.000000) scale(0.100000,-0.100000)"
fill="#ffffff" stroke="none">
<path d="M5762 4261 c-31 -11 -70 -35 -93 -57 -98 -96 -98 -269 2 -358 21 -20
39 -42 39 -49 0 -7 -29 -20 -67 -30 -214 -56 -400 -210 -498 -412 -54 -110
-73 -181 -81 -299 -25 -359 212 -697 561 -802 78 -24 107 -27 220 -27 113 0
142 3 220 27 361 109 599 463 557 831 -24 211 -130 414 -277 527 -44 35 -52
45 -44 60 9 17 12 17 38 3 29 -14 29 -14 45 26 26 65 7 96 -92 147 -96 50
-123 52 -163 13 -35 -36 -37 -54 -4 -71 18 -10 22 -17 15 -30 -8 -16 -14 -15
-84 4 -43 12 -76 26 -76 34 0 6 18 28 39 48 71 64 95 179 57 277 -23 60 -92
122 -159 142 -65 19 -90 19 -155 -4z m165 -52 c118 -57 155 -203 76 -307 l-24
-32 -26 20 c-21 16 -41 20 -108 20 -67 0 -87 -4 -108 -20 l-26 -20 -25 33
c-35 46 -53 125 -38 174 25 82 116 153 196 153 22 0 59 -9 83 -21z m122 -568
c125 -38 260 -137 332 -242 153 -226 168 -487 41 -719 -52 -95 -171 -209 -269
-258 -121 -61 -181 -76 -308 -76 -124 0 -185 15 -304 72 -95 46 -222 168 -274
262 -76 140 -103 301 -73 450 79 398 467 629 855 511z"/>
<path d="M5768 3595 c3 -31 9 -45 19 -45 20 0 14 84 -7 88 -12 2 -14 -7 -12
-43z"/>
<path d="M5830 3575 c0 -51 3 -65 15 -65 12 0 15 14 15 65 0 51 -3 65 -15 65
-12 0 -15 -14 -15 -65z"/>
<path d="M5897 3633 c-4 -3 -7 -24 -7 -45 0 -57 27 -51 32 7 3 42 -7 57 -25
38z"/>
<path d="M5706 3593 c7 -41 17 -57 31 -52 15 7 -6 89 -23 89 -12 0 -13 -8 -8
-37z"/>
<path d="M5953 3588 c-5 -25 -5 -45 0 -47 14 -5 24 11 31 52 5 29 4 37 -8 37
-9 0 -18 -15 -23 -42z"/>
<path d="M5640 3604 c0 -4 5 -24 12 -45 11 -38 21 -48 32 -31 9 15 -17 82 -31
82 -7 0 -13 -3 -13 -6z"/>
<path d="M6012 3573 c-11 -36 -9 -53 7 -53 7 0 31 65 31 84 0 3 -6 6 -13 6 -8
0 -19 -16 -25 -37z"/>
<path d="M5580 3580 c0 -23 30 -82 41 -78 14 5 14 7 -1 51 -13 33 -40 52 -40
27z"/>
<path d="M6070 3553 c-15 -44 -15 -46 -1 -51 9 -3 41 58 41 79 0 24 -28 4 -40
-28z"/>
<path d="M5520 3551 c0 -23 42 -80 55 -74 12 4 10 12 -8 44 -20 36 -47 52 -47
30z"/>
<path d="M6122 3521 c-18 -32 -20 -40 -8 -44 14 -6 56 50 56 74 0 23 -28 5
-48 -30z"/>
<path d="M5473 3522 c-9 -6 -5 -18 14 -45 27 -38 37 -44 47 -28 5 7 -12 35
-43 73 -4 4 -12 4 -18 0z"/>
<path d="M6176 3492 c-18 -25 -22 -40 -15 -47 7 -7 16 -2 30 15 35 44 40 58
25 63 -8 3 -24 -9 -40 -31z"/>
<path d="M5420 3480 c-12 -8 -9 -15 20 -45 44 -45 63 -31 25 19 -15 20 -28 36
-29 36 0 0 -8 -5 -16 -10z"/>
<path d="M6226 3455 c-35 -45 -24 -66 15 -29 16 15 29 33 29 40 0 27 -19 22
-44 -11z"/>
<path d="M5735 3458 c-82 -30 -151 -104 -175 -186 -10 -38 8 -67 48 -75 17 -3
41 -9 55 -12 23 -6 28 -2 51 47 30 64 66 88 131 88 86 0 145 -51 145 -125 0
-55 -8 -64 -253 -305 -187 -185 -197 -197 -197 -232 0 -24 7 -45 20 -58 19
-19 33 -20 304 -20 232 0 286 3 295 14 7 9 11 38 9 73 l-3 58 -189 5 -189 5
152 144 c177 167 202 204 209 302 8 117 -40 204 -142 257 -43 21 -67 26 -146
29 -54 1 -108 -2 -125 -9z"/>
<path d="M5374 3428 c-9 -15 58 -70 70 -57 6 5 -1 20 -19 39 -31 33 -40 36
-51 18z"/>
<path d="M6265 3410 c-18 -19 -25 -34 -19 -39 12 -13 79 42 70 57 -11 18 -20
15 -51 -18z"/>
<path d="M5330 3377 c0 -14 52 -57 70 -57 21 0 9 26 -23 48 -38 25 -47 27 -47
9z"/>
<path d="M6312 3368 c-28 -17 -44 -48 -26 -48 13 0 74 42 74 50 0 18 -17 18
-48 -2z"/>
<path d="M5297 3326 c-6 -14 50 -56 74 -56 23 0 5 28 -30 48 -32 18 -40 20
-44 8z"/>
<path d="M6348 3318 c-35 -20 -51 -48 -29 -48 24 0 80 42 74 56 -3 8 -6 14 -7
14 0 0 -18 -10 -38 -22z"/>
<path d="M5267 3266 c-3 -8 8 -20 29 -30 43 -20 54 -20 54 -1 0 8 -2 15 -4 15
-2 0 -19 7 -39 15 -29 12 -36 12 -40 1z"/>
<path d="M6371 3259 c-34 -15 -42 -22 -33 -31 16 -16 95 21 84 39 -6 9 -19 7
-51 -8z"/>
<path d="M5244 3209 c-9 -15 5 -26 49 -37 33 -9 38 -9 35 5 -4 20 -75 46 -84
32z"/>
<path d="M6400 3205 c-19 -6 -36 -19 -38 -28 -3 -14 2 -14 35 -5 45 12 61 24
48 37 -6 5 -25 3 -45 -4z"/>
<path d="M5225 3139 c-10 -14 -6 -16 48 -24 38 -6 47 -4 47 8 0 22 -83 37 -95
16z"/>
<path d="M6393 3143 c-13 -2 -23 -11 -23 -20 0 -13 8 -14 42 -9 48 8 60 14 53
27 -6 9 -31 10 -72 2z"/>
<path d="M5215 3080 c-10 -16 -7 -17 48 -25 39 -6 47 -5 47 9 0 9 -6 16 -14
16 -7 0 -27 3 -44 6 -18 4 -32 1 -37 -6z"/>
<path d="M6408 3083 c-17 -3 -28 -11 -28 -20 0 -12 8 -14 38 -9 20 3 42 6 49
6 7 0 10 7 7 15 -6 15 -14 16 -66 8z"/>
<path d="M5210 3005 c0 -12 14 -15 65 -15 51 0 65 3 65 15 0 12 -14 15 -65 15
-51 0 -65 -3 -65 -15z"/>
<path d="M6350 3005 c0 -12 14 -15 65 -15 51 0 65 3 65 15 0 12 -14 15 -65 15
-51 0 -65 -3 -65 -15z"/>
<path d="M5252 2963 c-58 -5 -50 -28 9 -28 34 0 44 4 47 18 2 9 0 16 -5 15 -4
-1 -27 -3 -51 -5z"/>
<path d="M6382 2951 c4 -19 75 -28 91 -12 15 15 9 18 -46 23 -41 5 -48 3 -45
-11z"/>
<path d="M5262 2900 c-40 -9 -43 -12 -34 -27 10 -15 95 4 89 20 -5 15 -16 16
-55 7z"/>
<path d="M6370 2897 c0 -20 81 -41 92 -24 9 14 -5 22 -54 31 -29 5 -38 4 -38
-7z"/>
<path d="M5273 2838 c-18 -6 -33 -17 -33 -24 0 -17 3 -17 51 -2 22 6 39 17 39
25 0 15 -12 15 -57 1z"/>
<path d="M6360 2837 c0 -8 17 -19 39 -25 48 -15 51 -15 51 1 0 8 -17 19 -39
25 -48 15 -51 15 -51 -1z"/>
<path d="M5300 2782 c-46 -22 -45 -21 -33 -33 15 -15 93 18 86 37 -6 17 -9 17
-53 -4z"/>
<path d="M6337 2786 c-4 -10 7 -19 34 -30 38 -15 59 -14 59 3 0 4 -17 13 -37
21 -21 8 -41 16 -44 18 -4 2 -9 -4 -12 -12z"/>
<path d="M5330 2727 c-19 -11 -37 -22 -39 -24 -3 -2 0 -8 6 -14 11 -11 83 25
83 41 0 19 -17 18 -50 -3z"/>
<path d="M6316 2743 c-12 -12 -6 -21 30 -42 32 -19 54 -21 54 -3 0 11 -77 52
-84 45z"/>
<path d="M5357 2671 c-28 -22 -34 -31 -24 -39 16 -14 87 42 72 57 -7 6 -23 0
-48 -18z"/>
<path d="M6284 2689 c-9 -15 57 -71 70 -59 11 11 2 24 -34 50 -20 15 -31 17
-36 9z"/>
<path d="M5400 2625 c-23 -23 -31 -38 -24 -45 14 -14 76 51 66 68 -6 8 -18 2
-42 -23z"/>
<path d="M6247 2647 c-7 -19 58 -84 68 -67 5 7 -6 26 -27 47 -27 27 -36 31
-41 20z"/>
<path d="M5438 2576 c-18 -23 -24 -37 -17 -42 15 -9 74 51 65 65 -11 17 -19
13 -48 -23z"/>
<path d="M6204 2599 c-9 -14 50 -74 65 -65 7 5 1 19 -17 42 -29 36 -37 40 -48
23z"/>
<path d="M5488 2541 c-25 -35 -27 -51 -8 -51 4 0 19 15 34 34 19 26 23 36 13
44 -9 8 -19 0 -39 -27z"/>
<path d="M6163 2568 c-15 -19 40 -93 55 -75 8 9 3 23 -17 50 -22 28 -31 34
-38 25z"/>
<path d="M5540 2508 c-23 -37 -24 -44 -10 -53 10 -6 50 51 50 73 0 22 -20 12
-40 -20z"/>
<path d="M6110 2528 c0 -7 9 -28 21 -47 14 -24 23 -31 31 -23 8 8 5 20 -8 43
-20 35 -44 49 -44 27z"/>
<path d="M5592 2475 c-17 -36 -18 -44 -7 -49 16 -6 17 -5 38 46 23 55 -4 58
-31 3z"/>
<path d="M6063 2512 c-18 -11 21 -94 41 -86 13 5 13 12 -6 47 -11 23 -21 43
-22 44 -1 1 -7 -1 -13 -5z"/>
<path d="M5651 2461 c-14 -50 -14 -61 3 -61 8 0 17 12 20 28 4 15 9 34 12 43
2 9 -2 19 -9 22 -10 4 -18 -7 -26 -32z"/>
<path d="M5830 2435 c0 -51 3 -65 15 -65 12 0 15 14 15 65 0 51 -3 65 -15 65
-12 0 -15 -14 -15 -65z"/>
<path d="M6012 2491 c-11 -7 -11 -16 -1 -50 7 -22 18 -41 26 -41 16 0 16 23 0
67 -9 23 -16 30 -25 24z"/>
<path d="M5717 2473 c-2 -5 -7 -24 -11 -44 -5 -27 -3 -38 8 -42 10 -4 16 5 21
29 3 20 9 42 12 50 5 14 -22 21 -30 7z"/>
<path d="M5946 2453 c17 -69 19 -72 32 -64 19 11 1 85 -21 89 -15 3 -17 -1
-11 -25z"/>
<path d="M5768 2425 c-2 -36 0 -45 12 -43 21 4 27 88 7 88 -10 0 -16 -14 -19
-45z"/>
<path d="M5890 2425 c0 -36 3 -45 18 -45 14 0 17 7 14 45 -3 30 -9 45 -18 45
-10 0 -14 -13 -14 -45z"/>
<path d="M1134 3967 c-3 -8 -4 -49 -2 -93 l3 -79 278 -3 277 -2 0 -790 0 -790
105 0 105 0 0 790 0 790 276 2 276 3 0 90 0 90 -656 3 c-543 2 -657 0 -662
-11z"/>
<path d="M6414 3967 c-3 -8 -4 -49 -2 -93 l3 -79 278 -3 277 -2 0 -790 0 -790
100 0 100 0 0 790 0 790 280 0 281 0 -3 93 -3 92 -653 3 c-539 2 -653 0 -658
-11z"/>
<path d="M8646 3458 c-33 -50 -377 -850 -372 -863 5 -13 65 -15 416 -15 402 0
410 0 410 20 0 24 -90 235 -227 530 -57 124 -113 248 -125 275 -12 28 -26 56
-31 63 -15 20 -55 14 -71 -10z m124 -473 c45 -104 89 -205 96 -222 l14 -33
-190 0 c-115 0 -190 4 -190 10 0 5 33 89 74 187 108 257 107 255 110 252 2 -2
41 -89 86 -194z"/>
<path d="M2392 3448 c-17 -17 -17 -839 0 -856 7 -7 37 -12 68 -12 31 0 61 5
68 12 9 9 12 117 12 424 0 227 -3 419 -6 428 -8 20 -123 23 -142 4z"/>
<path d="M3036 3428 c-8 -18 -87 -208 -175 -421 -105 -251 -160 -395 -156
-408 5 -16 16 -19 68 -19 67 0 79 5 94 35 9 16 186 451 235 575 8 22 18 4 89
-168 l79 -194 -39 -91 c-21 -51 -42 -101 -45 -113 -12 -39 11 -45 175 -42 139
3 154 5 157 21 2 10 -15 65 -39 121 l-42 103 74 187 c41 102 78 185 83 183 4
-1 62 -135 128 -297 66 -162 125 -301 130 -308 8 -9 32 -12 77 -10 59 3 66 5
69 25 3 18 -288 741 -331 823 -12 23 -19 25 -76 25 l-62 0 -83 -200 c-46 -109
-88 -201 -93 -202 -5 -2 -40 72 -78 164 -107 262 -94 243 -166 243 -58 0 -60
-1 -73 -32z"/>
<path d="M4155 3448 c-3 -7 -4 -204 -3 -438 l3 -425 320 0 320 0 3 63 c2 38
-2 69 -9 78 -9 11 -56 14 -245 14 l-234 0 0 100 0 100 218 0 c156 0 221 3 230
12 12 12 17 104 6 132 -5 14 -35 16 -230 16 l-225 0 3 103 3 102 230 5 230 5
0 70 0 70 -308 3 c-241 2 -309 0 -312 -10z"/>
<path d="M7490 3453 c0 -4 52 -102 115 -217 63 -115 115 -211 115 -213 0 -1
-47 -3 -105 -3 l-105 0 2 -217 3 -218 70 0 70 0 5 145 5 145 69 0 69 0 72
-127 c96 -172 94 -169 174 -166 51 2 66 7 69 19 2 9 -31 79 -72 155 -42 76
-76 139 -76 140 0 1 14 7 30 14 44 18 106 93 131 159 49 131 -7 286 -130 359
l-46 27 -232 3 c-128 2 -233 0 -233 -5z m440 -152 c68 -36 98 -126 64 -197
-17 -35 -62 -74 -86 -74 -11 0 -158 264 -158 284 0 3 33 6 73 6 51 0 82 -5
107 -19z"/>
<path d="M9177 3453 c-4 -3 -7 -15 -7 -25 0 -20 326 -813 343 -835 5 -8 32
-13 62 -13 30 0 57 5 62 13 6 6 52 113 103 237 51 124 126 306 166 404 41 98
74 189 74 202 0 23 -3 24 -69 24 -45 0 -72 -5 -80 -14 -6 -7 -63 -147 -126
-310 -63 -164 -119 -305 -123 -313 -9 -15 -10 -14 -172 407 -40 102 -78 195
-86 208 -13 19 -23 22 -78 22 -34 0 -66 -3 -69 -7z"/>
<path d="M10135 3448 c-3 -7 -4 -204 -3 -438 l3 -425 314 -3 c245 -2 316 1
323 10 12 20 9 123 -4 136 -9 9 -77 12 -245 12 l-233 0 0 100 0 100 220 0
c248 0 240 -3 240 80 0 83 8 80 -240 80 l-220 0 0 105 0 105 229 0 c256 0 241
-5 241 75 0 81 24 75 -316 75 -235 0 -306 -3 -309 -12z"/>
<path d="M10985 3437 c-3 -6 -4 -201 -3 -432 l3 -420 314 -3 c245 -2 316 1
323 10 9 15 11 99 2 122 -5 14 -36 16 -244 16 -208 0 -239 2 -244 16 -3 9 -6
171 -6 360 l0 344 -70 0 c-47 0 -72 -4 -75 -13z"/>
<!-- <path d="M3642 1673 c-34 -82 -62 -151 -62 -155 0 -12 260 -10 260 2 0 15
-124 300 -130 300 -3 0 -34 -66 -68 -147z m148 -120 c0 -10 -20 -13 -80 -13
-58 0 -80 3 -80 13 0 12 63 167 76 189 7 10 84 -164 84 -189z"/>
<path d="M5580 1817 c0 -21 129 -302 138 -302 11 0 132 273 132 298 0 5 -7 7
-16 5 -11 -2 -32 -43 -61 -118 -24 -63 -48 -119 -52 -123 -4 -4 -30 49 -57
118 -37 94 -53 125 -66 125 -10 0 -18 -1 -18 -3z"/>
<path d="M7080 1806 c0 -11 14 -16 48 -18 l47 -3 3 -52 c2 -38 7 -53 18 -53 7
0 14 -7 14 -15 0 -10 11 -15 35 -15 24 0 35 5 35 15 0 11 -11 15 -36 15 l-35
0 3 53 3 52 43 3 c28 2 42 8 42 18 0 11 -21 14 -110 14 -89 0 -110 -3 -110
-14z"/>
<path d="M3935 1758 c-53 -29 -72 -103 -40 -152 30 -45 103 -57 142 -24 19 15
17 68 -2 68 -9 0 -15 -9 -15 -24 0 -47 -80 -40 -102 9 -26 57 30 117 88 95 37
-14 53 3 23 24 -27 18 -65 20 -94 4z"/>
<path d="M4574 1751 c-60 -37 -66 -121 -12 -166 43 -37 128 -30 128 10 0 17
-16 20 -25 5 -8 -13 -51 -13 -76 1 -11 5 -24 22 -30 36 -22 58 36 116 95 93
35 -13 36 -13 36 5 0 16 -38 35 -68 35 -9 0 -31 -9 -48 -19z"/>
<path d="M5070 1671 l0 -101 51 0 c63 0 87 13 105 55 31 75 -12 135 -101 143
l-55 4 0 -101z m119 44 c20 -20 18 -71 -4 -95 -11 -12 -31 -20 -52 -20 l-33 0
0 63 c0 35 3 67 7 71 11 11 65 -2 82 -19z"/>
<path d="M5924 1736 c-38 -38 -44 -77 -19 -126 29 -56 102 -68 153 -25 75 63
26 185 -74 185 -16 0 -38 -12 -60 -34z m100 -7 c33 -15 50 -57 37 -92 -19 -49
-79 -62 -118 -25 -31 29 -30 72 2 103 27 28 42 30 79 14z"/>
<path d="M5981 1680 c-17 -10 -7 -40 13 -40 7 0 16 6 19 14 8 19 -15 37 -32
26z"/>
<path d="M6130 1766 c0 -3 16 -32 35 -65 30 -50 35 -69 35 -120 0 -48 3 -61
15 -61 11 0 15 12 15 50 0 38 9 68 35 120 40 80 40 80 20 80 -8 0 -25 -20 -37
-45 -12 -25 -26 -45 -30 -45 -5 0 -18 20 -30 45 -14 29 -29 45 -40 45 -10 0
-18 -2 -18 -4z"/>
<path d="M6372 1674 c-23 -52 -42 -100 -42 -105 0 -5 41 -9 90 -9 54 0 90 4
90 10 0 12 -87 200 -93 200 -2 0 -22 -43 -45 -96z m68 -20 c11 -25 20 -50 20
-55 0 -5 -18 -9 -40 -9 -25 0 -40 5 -40 12 0 13 33 98 38 98 1 0 12 -21 22
-46z"/>
<path d="M6605 1761 c-89 -38 -77 -176 17 -196 16 -4 43 -1 59 5 24 10 29 18
29 46 0 24 -5 34 -15 34 -9 0 -15 -9 -15 -24 0 -46 -81 -36 -98 12 -20 59 29
112 85 91 30 -11 55 3 37 21 -15 15 -75 21 -99 11z"/>
<path d="M7562 1670 c-35 -87 -38 -100 -23 -100 13 0 26 20 46 72 l28 72 21
-42 c17 -35 18 -47 9 -72 l-11 -30 39 0 c38 0 38 1 28 27 -8 21 -6 37 6 70 9
24 20 41 23 39 4 -2 18 -34 32 -70 17 -47 29 -66 42 -66 17 0 17 3 -1 48 -49
120 -65 152 -76 152 -7 0 -20 -20 -29 -45 -10 -25 -21 -45 -25 -45 -5 0 -16
20 -25 45 -10 25 -24 45 -31 45 -7 0 -31 -45 -53 -100z"/>
<path d="M8084 1751 c-17 -10 -36 -33 -42 -51 -43 -122 128 -198 187 -83 46
90 -60 188 -145 134z m101 -36 c62 -61 -9 -156 -86 -114 -47 24 -44 104 4 127
35 17 56 14 82 -13z"/>
<path d="M8126 1683 c-3 -4 -6 -15 -6 -25 0 -24 33 -21 38 3 3 17 -21 33 -32
22z"/>
<path d="M4110 1665 l0 -95 70 0 c56 0 70 3 70 15 0 12 -13 15 -55 15 -52 0
-55 1 -55 25 0 23 3 25 50 25 38 0 50 4 50 15 0 11 -12 15 -50 15 -47 0 -50 2
-50 25 0 23 3 25 50 25 38 0 50 4 50 15 0 12 -14 15 -65 15 l-65 0 0 -95z"/>
<path d="M4300 1660 l0 -100 85 0 85 0 0 100 c0 81 -3 100 -15 100 -11 0 -15
-16 -17 -67 l-3 -68 -49 68 c-30 40 -57 67 -68 67 -16 0 -18 -10 -18 -100z
m78 -8 c17 -27 32 -52 32 -56 0 -4 -17 -6 -37 -4 l-38 3 -3 53 c-2 28 1 52 5
52 4 0 23 -22 41 -48z"/>
<path d="M4750 1665 l0 -95 70 0 c56 0 70 3 70 15 0 12 -13 15 -55 15 -52 0
-55 1 -55 25 0 23 3 25 50 25 38 0 50 4 50 15 0 11 -12 15 -50 15 -47 0 -50 2
-50 25 0 23 3 25 50 25 38 0 50 4 50 15 0 12 -14 15 -65 15 l-65 0 0 -95z"/>
<path d="M5280 1665 l0 -95 70 0 c56 0 70 3 70 15 0 12 -13 15 -56 15 -52 0
-55 1 -52 23 3 19 10 22 56 25 37 2 52 7 52 18 0 10 -14 14 -55 14 -52 0 -55
1 -55 25 0 24 3 25 55 25 42 0 55 3 55 15 0 12 -14 15 -70 15 l-70 0 0 -95z"/>
<path d="M6770 1665 l0 -95 70 0 c56 0 70 3 70 15 0 12 -13 15 -56 15 -52 0
-55 1 -52 23 3 19 10 22 56 25 37 2 52 7 52 18 0 10 -14 14 -55 14 -52 0 -55
1 -55 25 0 24 3 25 55 25 42 0 55 3 55 15 0 12 -14 15 -70 15 l-70 0 0 -95z"/>
<path d="M7350 1665 l0 -95 75 0 c60 0 75 3 75 15 0 12 -13 15 -61 15 -57 0
-60 1 -57 23 3 19 10 22 56 25 37 2 52 7 52 18 0 10 -14 14 -55 14 -52 0 -55
1 -55 25 0 24 3 25 55 25 42 0 55 3 55 15 0 12 -14 15 -70 15 l-70 0 0 -95z"/>
<path d="M7880 1713 l29 -48 -30 -3 c-29 -3 -30 -5 -27 -49 4 -56 28 -72 28
-19 0 35 1 36 35 36 25 0 44 8 60 25 30 29 31 45 4 79 -18 22 -28 26 -75 26
l-54 0 30 -47z m84 -5 c8 -13 7 -21 -2 -30 -11 -11 -17 -9 -33 11 -10 13 -19
28 -19 33 0 15 42 4 54 -14z"/>
<path d="M8315 1717 c30 -53 31 -57 5 -57 -17 0 -20 -7 -20 -51 0 -57 23 -66
28 -11 4 44 33 42 55 -3 9 -19 23 -35 32 -35 19 0 19 4 0 41 -15 28 -15 31 5
56 25 33 25 53 0 81 -17 18 -32 22 -76 22 l-55 0 26 -43z m85 -2 c14 -17 7
-45 -13 -45 -11 0 -37 39 -37 55 0 12 39 4 50 -10z"/>
<path d="M8490 1665 l0 -95 70 0 c56 0 70 3 70 15 0 12 -13 15 -56 15 -52 0
-55 1 -52 23 3 19 10 22 51 25 33 2 47 7 47 18 0 10 -13 14 -50 14 -47 0 -50
2 -50 25 0 24 3 25 55 25 42 0 55 3 55 15 0 12 -14 15 -70 15 l-70 0 0 -95z"/>
<path d="M8680 1660 l0 -100 75 0 c59 0 75 3 75 15 0 10 -15 15 -57 17 l-58 3
-3 83 c-2 64 -6 82 -17 82 -12 0 -15 -19 -15 -100z"/>
<path d="M8870 1660 l0 -100 70 0 c54 0 70 3 70 14 0 11 -15 16 -52 18 l-53 3
-3 83 c-2 64 -6 82 -17 82 -12 0 -15 -19 -15 -100z"/>
<path d="M9060 1665 l0 -95 70 0 c56 0 70 3 70 15 0 12 -13 15 -56 15 -52 0
-55 1 -52 23 3 19 10 22 51 25 33 2 47 7 47 18 0 10 -13 14 -50 14 -47 0 -50
2 -50 25 0 24 3 25 55 25 42 0 55 3 55 15 0 12 -14 15 -70 15 l-70 0 0 -95z"/>
<path d="M4611 1677 c-14 -17 3 -41 23 -34 9 4 16 13 16 21 0 19 -26 28 -39
13z"/>
<path d="M7110 1665 c0 -10 10 -15 30 -15 20 0 30 5 30 15 0 10 -10 15 -30 15
-20 0 -30 -5 -30 -15z"/>
<path d="M7180 1575 c0 -51 3 -65 15 -65 12 0 15 14 15 65 0 51 -3 65 -15 65
-12 0 -15 -14 -15 -65z"/> -->
<!-- <path d="M650 1155 l0 -75 5690 0 5690 0 0 75 0 75 -5690 0 -5690 0 0 -75z"/> -->
</g>
</svg>
